<svg width="29" height="33" viewBox="0 0 29 33" fill="none" xmlns="http://www.w3.org/2000/svg">
<path d="M13.8496 0.355858C13.0836 0.507616 12.2453 0.933983 11.6455 1.47598C11.1541 1.93125 10.5904 2.77676 10.3664 3.39101C10.2074 3.84629 10.2002 3.84629 9.70879 4.06308C8.47305 4.6123 7.07832 5.6457 6.3123 6.57793C5.48848 7.58965 4.85977 8.84707 4.53457 10.1117C4.25273 11.2318 4.15879 12.0412 4.09375 14.1514C3.95645 18.6102 3.62402 19.6652 1.63672 22.1367C0.762305 23.2207 0.661133 23.4375 0.661133 24.2686C0.661133 24.8611 0.682813 24.9695 0.899609 25.4031C1.18867 25.9885 1.69453 26.4727 2.27266 26.7039L2.68457 26.8701H14.5H26.3154L26.7273 26.7039C27.3055 26.4727 27.8113 25.9885 28.1004 25.4031C28.3172 24.9695 28.3389 24.8611 28.3389 24.2686C28.3389 23.4375 28.2377 23.2207 27.3633 22.1367C26.5467 21.1178 26.2287 20.6625 25.9035 20.0049C25.2387 18.6824 24.9062 16.7457 24.9062 14.1441C24.9062 9.07109 23.2225 5.9709 19.5008 4.17148L18.7998 3.83183L18.6264 3.39824C18.359 2.71172 17.9832 2.13359 17.4701 1.61328C16.6535 0.789452 15.7791 0.391991 14.6807 0.348631C14.3266 0.334177 13.9508 0.341404 13.8496 0.355858Z" fill="black"/>
<path d="M9.45586 29.3054C9.31856 29.4427 9.34746 29.5655 9.67988 30.0714C10.8506 31.8708 13.0547 32.897 15.1793 32.6296C16.8775 32.4128 18.4096 31.4733 19.3201 30.0714C19.6525 29.5655 19.6814 29.4427 19.5441 29.3054C19.4213 29.1825 9.57871 29.1825 9.45586 29.3054Z" fill="black"/>
</svg>
