<svg width="31" height="31" viewBox="0 0 31 31" fill="none" xmlns="http://www.w3.org/2000/svg">
<path d="M15.0156 1.76797C14.6342 2.02832 14.5615 2.18574 14.5434 2.83965L14.5191 3.42695L13.9863 3.52988C13.2174 3.68125 12.5998 3.89317 11.8369 4.26855C10.293 5.03145 8.92461 6.41191 8.17383 7.96191C7.69551 8.94883 7.59258 9.37266 6.96289 13.1326C6.62988 15.1246 6.31504 16.8199 6.24844 16.9955C6.02441 17.5889 5.80039 17.8916 4.99512 18.6848C4.27461 19.3932 4.16563 19.5264 3.94766 19.9865C3.66309 20.5859 3.57227 20.9674 3.57227 21.6031C3.57227 22.59 3.92344 23.4195 4.63184 24.1279C5.12227 24.6184 5.60664 24.8969 6.27266 25.0664C6.69043 25.1754 6.94473 25.1875 8.7127 25.1875H10.6865L10.7955 25.6598C11.0861 26.9736 12.0307 28.1785 13.2598 28.8143C14.0711 29.2381 14.4949 29.335 15.5 29.335C16.4627 29.335 16.8865 29.2441 17.6555 28.8688C18.8906 28.2693 19.9078 26.9857 20.2045 25.6537L20.3135 25.1875H22.257C23.9947 25.1875 24.249 25.1754 24.6668 25.0664C25.3449 24.8969 25.8172 24.6244 26.3439 24.0977C27.0826 23.3711 27.4277 22.5537 27.4277 21.5244C27.4277 20.9311 27.3127 20.4588 27.0221 19.8594C26.8404 19.4719 26.683 19.2842 26.0109 18.6182C25.1996 17.8189 24.9574 17.4738 24.7395 16.8199C24.691 16.6625 24.3883 14.9732 24.0674 13.066C23.4256 9.24551 23.3227 8.83379 22.7596 7.74395C21.6152 5.5582 19.4477 3.95977 17.0318 3.52988L16.4809 3.43301L16.4566 2.83965C16.4445 2.35527 16.4143 2.21602 16.3113 2.07676C16.0994 1.78613 15.8148 1.63477 15.5 1.63477C15.3063 1.63477 15.1549 1.67715 15.0156 1.76797ZM16.5959 5.41895C18.2428 5.70352 19.7201 6.64805 20.6525 8.0043C20.9734 8.47656 21.3307 9.20312 21.4881 9.70567C21.5547 9.93574 21.8756 11.6795 22.1904 13.5807C22.7596 16.9531 22.8928 17.5828 23.2016 18.1822C23.474 18.7271 23.9523 19.3266 24.6063 19.9563C25.3752 20.6949 25.4902 20.9129 25.4902 21.591C25.4902 22.3176 24.9756 23.0018 24.2793 23.1895C24.1279 23.2318 21.1672 23.2439 15.3668 23.2379L6.69043 23.2197L6.36953 23.0441C5.8125 22.7354 5.50977 22.2146 5.50977 21.585C5.50977 20.9977 5.70352 20.6586 6.35742 20.0773C6.89023 19.6051 7.39277 19.0057 7.6834 18.4971C8.13145 17.71 8.24648 17.2316 8.87012 13.502C9.2334 11.3223 9.50586 9.85098 9.60274 9.56641C10.5775 6.67227 13.5807 4.88613 16.5959 5.41895ZM18.2791 25.3813C17.94 26.574 16.7775 27.4277 15.5 27.4277C14.2225 27.4277 13.06 26.574 12.7209 25.3813L12.6604 25.1875H15.5H18.3397L18.2791 25.3813Z" fill="white"/>
</svg>
