<?xml version="1.0" standalone="no"?>
<!DOCTYPE svg PUBLIC "-//W3C//DTD SVG 20010904//EN"
 "http://www.w3.org/TR/2001/REC-SVG-20010904/DTD/svg10.dtd">
<svg version="1.0" xmlns="http://www.w3.org/2000/svg"
 width="512.000000pt" height="512.000000pt" viewBox="0 0 512.000000 512.000000"
 preserveAspectRatio="xMidYMid meet">

<g transform="translate(0.000000,512.000000) scale(0.100000,-0.100000)"
fill="#FFBFBF" stroke="none">
<path d="M1212 4465 c-133 -29 -231 -91 -410 -259 -94 -88 -129 -114 -205
-151 -51 -24 -135 -56 -187 -70 -52 -15 -118 -33 -146 -41 -37 -10 -62 -25
-87 -53 -50 -56 -64 -106 -50 -188 21 -118 87 -221 187 -289 85 -58 353 -132
544 -150 39 -3 72 -8 72 -10 0 -2 11 -47 25 -100 65 -250 77 -335 85 -604 4
-140 13 -280 20 -310 49 -225 116 -360 251 -505 75 -81 110 -136 133 -210 25
-80 78 -483 65 -506 -13 -24 -61 -49 -95 -49 -68 0 -141 -61 -159 -133 -18
-70 40 -166 113 -187 58 -16 310 -13 368 5 105 31 153 99 200 284 39 154 50
310 34 500 -15 179 -10 217 38 281 54 71 99 95 275 146 298 86 598 127 932
128 l240 1 65 -31 c91 -44 142 -92 215 -204 104 -158 254 -284 460 -388 129
-65 151 -101 165 -275 11 -135 4 -152 -66 -163 -73 -11 -134 -77 -134 -146 0
-47 39 -106 86 -128 40 -20 57 -22 192 -18 158 4 198 15 249 70 50 54 53 75
53 415 0 346 5 305 -65 533 -14 47 -32 123 -41 170 -21 121 -44 376 -44 489
-1 198 -31 368 -90 499 -17 35 -30 69 -30 73 0 14 82 10 140 -7 111 -33 196
-115 261 -253 22 -47 46 -97 53 -111 14 -29 53 -34 69 -8 8 12 4 33 -16 85
-67 170 -160 282 -286 342 -71 33 -83 36 -175 37 -98 1 -100 2 -119 30 -36 52
-151 165 -212 209 -78 55 -160 96 -265 131 -80 26 -96 28 -255 28 -153 1 -180
-2 -270 -26 -166 -44 -244 -52 -495 -53 -245 0 -375 11 -540 47 -141 30 -161
41 -250 134 -134 142 -213 292 -266 504 -13 54 -33 118 -43 144 -72 167 -246
317 -400 346 -69 13 -111 12 -189 -5z m-142 -429 c0 -15 -14 -36 -35 -55 -30
-26 -39 -29 -56 -20 -37 19 -35 40 9 81 35 33 45 37 62 28 11 -6 20 -21 20
-34z m513 -158 c35 -27 162 -355 192 -497 21 -101 19 -150 -8 -201 -51 -96
-219 -124 -354 -59 -60 29 -137 117 -163 187 -30 78 -45 196 -34 263 8 46 13
55 33 57 38 6 45 -11 45 -120 1 -91 4 -110 29 -163 64 -136 178 -204 297 -175
63 15 90 47 90 105 0 85 -68 296 -159 498 -36 80 -36 81 -15 101 19 19 25 20
47 4z"/>
<path d="M3384 1832 c133 -266 344 -491 562 -600 34 -17 64 -38 68 -47 3 -9 6
-52 6 -94 0 -109 -15 -127 -108 -133 -56 -3 -76 -9 -105 -31 -94 -72 -80 -215
27 -266 36 -18 61 -21 169 -21 70 0 127 2 127 4 0 3 -10 22 -22 43 -34 57 -32
152 4 214 30 51 87 95 137 105 l34 7 -5 92 c-7 124 -18 141 -137 205 -231 124
-362 237 -473 405 -36 55 -82 114 -103 130 -51 38 -141 74 -188 75 l-37 0 44
-88z"/>
<path d="M1115 1798 c8 -69 -11 -415 -31 -560 -21 -156 -44 -184 -151 -195
-128 -13 -203 -87 -203 -201 1 -92 57 -167 145 -191 22 -6 111 -11 197 -11
l157 0 -27 52 c-39 75 -38 164 1 231 37 63 95 104 168 119 53 11 59 14 59 38
0 52 -51 387 -66 432 -18 55 -57 112 -128 188 -29 30 -67 76 -85 103 -17 26
-34 47 -37 47 -3 0 -3 -24 1 -52z"/>
</g>
</svg>
