<svg width="28" height="28" viewBox="0 0 28 28" fill="none" xmlns="http://www.w3.org/2000/svg">
<g clip-path="url(#clip0_22_126)">
<path d="M12.8953 1.01172C12.0258 1.19219 11.1344 1.59687 10.4891 2.10547C10.3305 2.23125 8.43283 3.97578 6.27814 5.97734C2.38439 9.59765 2.03439 9.94765 1.62424 10.6641C1.41642 11.025 1.1758 11.6266 1.03361 12.1516L0.907831 12.6055L0.885956 17.8828C0.875018 21.4812 0.891425 23.2805 0.929706 23.543C1.06642 24.4289 1.47658 25.2164 2.12736 25.8727C2.77267 26.518 3.56017 26.9281 4.42971 27.0648C4.67033 27.1031 7.8258 27.125 14 27.125C20.1742 27.125 23.3297 27.1031 23.5703 27.0648C25.0578 26.8242 26.3867 25.7141 26.8789 24.2977C27.125 23.5977 27.1305 23.4391 27.1141 17.8828L27.0922 12.6055L26.9664 12.1406C26.7258 11.2656 26.3539 10.5328 25.818 9.85469C25.6922 9.69609 23.8 7.90234 21.6125 5.87344C17.4563 2.0125 17.1172 1.72265 16.2805 1.37265C15.5149 1.05547 15.0883 0.973436 14.1367 0.951561C13.5352 0.940622 13.1469 0.957029 12.8953 1.01172ZM15.0063 2.78906C15.5477 2.92578 16.182 3.25937 16.6031 3.62578C16.7836 3.78437 18.6047 5.46875 20.65 7.36641C24.8281 11.2492 24.8391 11.2547 25.2164 12.3867L25.3477 12.7695L25.3641 17.932C25.375 21.5305 25.3586 23.1875 25.3203 23.3844C25.1781 24.0625 24.675 24.7406 24.0844 25.0578C23.5375 25.3531 23.3406 25.375 21.2078 25.375H19.2555L19.2391 22.3234C19.2172 19.343 19.2172 19.2664 19.0914 18.8398C18.6485 17.2758 17.6531 16.0781 16.2367 15.4C15.4274 15.0117 14.9461 14.9023 14 14.9078C13.0211 14.9078 12.5508 15.0172 11.6758 15.4492C10.6094 15.9797 9.86017 16.7289 9.32424 17.8008C8.77189 18.9055 8.78283 18.8125 8.76096 22.3234L8.74455 25.375H6.79221C4.65939 25.375 4.46252 25.3531 3.91564 25.0578C3.32502 24.7406 2.82189 24.0625 2.67971 23.3898C2.64142 23.1875 2.62502 21.5195 2.63596 17.932L2.65236 12.7695L2.78361 12.3867C3.16096 11.2547 3.12814 11.2984 7.28439 7.43203C9.31877 5.53984 11.1508 3.84453 11.3586 3.66406C11.7961 3.27578 12.425 2.93125 12.9719 2.78906C13.5297 2.64687 14.443 2.64141 15.0063 2.78906ZM14.7383 16.707C15.9031 16.9477 16.9477 17.8992 17.3524 19.0859C17.4672 19.4305 17.4727 19.518 17.4891 22.4109L17.5055 25.375H14H10.5V22.5695C10.5 19.4086 10.511 19.2992 10.8828 18.5609C11.6047 17.1336 13.1688 16.3789 14.7383 16.707Z" fill="#969696"/>
</g>
<defs>
<clipPath id="clip0_22_126">
<rect width="28" height="28" fill="white"/>
</clipPath>
</defs>
</svg>
