<svg width="19" height="19" viewBox="0 0 19 19" fill="none" xmlns="http://www.w3.org/2000/svg">
<path d="M14.3985 1.11321C14.1684 1.15404 13.9531 1.23568 13.7639 1.35814C13.6748 1.41009 11.5225 3.52903 8.98048 6.05989C1.95939 13.0513 2.36388 12.6431 2.24884 12.8843C2.09298 13.2034 1.02794 17.2706 1.05021 17.4525C1.08361 17.7048 1.26916 17.8904 1.54005 17.9386C1.69591 17.9683 5.81134 16.8958 6.09337 16.7511C6.24552 16.6732 7.459 15.4857 11.8861 11.0808C15.4264 7.55911 17.5379 5.42903 17.6307 5.29173C17.9832 4.76478 18.0166 4.05599 17.7123 3.52532C17.6604 3.43255 17.1817 2.92044 16.6473 2.38235C15.7863 1.514 15.649 1.39153 15.419 1.28021C15.2779 1.2097 15.0516 1.13548 14.918 1.11321C14.6508 1.07239 14.636 1.07239 14.3985 1.11321ZM14.8697 2.23021C15.0033 2.27845 16.6807 3.94837 16.7549 4.10423C16.8254 4.25267 16.8254 4.46419 16.7586 4.59407C16.7289 4.64974 16.3912 5.00599 16.0053 5.38821L15.3076 6.08587L14.109 4.88724L12.9141 3.69232L13.6266 2.97982C14.0199 2.58646 14.3836 2.24876 14.4356 2.23021C14.5617 2.18196 14.7436 2.18196 14.8697 2.23021ZM13.3408 5.67767L14.5283 6.86517L10.1494 11.2478C7.74103 13.6562 5.72599 15.6601 5.67404 15.7009C5.58498 15.7603 2.45666 16.6064 2.42326 16.5767C2.40841 16.5581 3.22111 13.4818 3.26564 13.389C3.30646 13.3074 12.094 4.49017 12.1348 4.49017C12.1459 4.49017 12.6877 5.02454 13.3408 5.67767Z" fill="#969696"/>
</svg>
