<svg width="70" height="70" viewBox="0 0 70 70" fill="none" xmlns="http://www.w3.org/2000/svg">
<circle cx="35" cy="35" r="35" fill="#A8DF8E"/>
<path d="M40.3144 16.0842C39.1341 16.3614 37.6499 17.5953 37.024 18.8024C35.6203 21.5205 35.8706 25.3562 37.6141 27.663C38.3741 28.6734 39.5186 29.4066 40.6363 29.5943C42.3887 29.8983 44.4094 28.5572 45.4466 26.4113C46.1082 25.0343 46.2066 24.5336 46.1976 22.7365C46.1887 21.3506 46.1708 21.1449 45.9473 20.4118C45.5628 19.1332 45.0711 18.2838 44.2395 17.4612C43.8461 17.0588 43.3186 16.6297 43.0682 16.4955C42.201 16.0395 41.1727 15.8875 40.3144 16.0842Z" fill="white"/>
<path d="M27.3765 16.2899C26.1962 16.7012 25.2217 17.64 24.56 18.9812C24.0414 20.0363 23.809 20.9751 23.7464 22.2537C23.6838 23.5054 23.809 24.4979 24.1755 25.5977C24.5511 26.7332 24.9892 27.4664 25.7224 28.1995C26.4913 28.9685 27.1529 29.3529 28.0202 29.5496C28.5835 29.6748 28.7713 29.6748 29.2988 29.5854C31.6235 29.192 33.4833 26.7958 33.823 23.7737C33.9214 22.9064 33.7962 21.3238 33.5548 20.4565C33.3134 19.5713 32.5802 18.105 32.1063 17.5596C30.9887 16.2631 28.9859 15.7177 27.3765 16.2899Z" fill="white"/>
<path d="M17.9077 25.3383C16.5755 25.696 15.6188 26.7957 15.1628 28.5035C14.9303 29.3797 14.9482 31.3379 15.2075 32.384C15.9764 35.4776 18.0061 37.4089 20.3129 37.248C21.7703 37.1407 22.9416 36.0945 23.5138 34.3778C23.7374 33.6983 23.7553 33.5284 23.7553 32.1694C23.7642 30.8997 23.7374 30.5957 23.5585 29.9967C23.2903 29.0489 22.9237 28.271 22.3783 27.4842C21.0908 25.6245 19.5708 24.8913 17.9077 25.3383Z" fill="white"/>
<path d="M50.1675 25.3652C48.5402 25.9016 47.1275 27.5557 46.4659 29.7106C46.2334 30.4616 46.2155 30.6315 46.2066 32.1247C46.2066 33.439 46.2334 33.8324 46.3675 34.2706C46.761 35.5223 47.4852 36.4433 48.4687 36.9261C49.0231 37.2032 49.1214 37.2211 50.0066 37.2211C50.8918 37.2211 50.9901 37.2032 51.5445 36.9261C52.6442 36.3896 53.5205 35.3971 54.2179 33.9218C54.7186 32.8578 54.9242 31.9637 54.9868 30.6851C55.0494 29.3708 54.8974 28.5303 54.3878 27.4663C53.9586 26.5812 53.2791 25.8569 52.5369 25.5082C51.8485 25.1774 50.9007 25.1148 50.1675 25.3652Z" fill="white"/>
<path d="M33.4117 32.0442C32.1689 32.2498 30.8903 32.7774 29.8263 33.5284C28.9053 34.1722 21.511 41.1552 20.9209 41.9331C20.1341 42.9792 19.7585 44.1416 19.7585 45.5811C19.7585 46.7256 19.9284 47.4677 20.456 48.5764C21.1444 50.0517 22.1905 51.1514 23.487 51.7863C24.4526 52.2601 25.1322 52.4032 26.3124 52.4032C27.5373 52.4032 28.2348 52.278 31.0244 51.5627C32.4013 51.214 33.4117 51.0084 33.9929 50.9547C35.6559 50.8206 37.6677 51.0888 40.2159 51.7952C40.8597 51.974 41.718 52.1797 42.1382 52.2512C43.1218 52.4121 44.5345 52.4121 45.2408 52.2423C47.0291 51.822 48.5401 50.5613 49.4342 48.7552C49.9528 47.7002 50.1048 47.0832 50.1585 45.894C50.2121 44.6602 50.0512 43.8465 49.5505 42.8093C49.2107 42.103 49.0676 41.942 47.5566 40.4399C45.3302 38.2494 41.0117 34.199 40.3768 33.7162C38.4366 32.2588 35.8437 31.6329 33.4117 32.0442Z" fill="white"/>
</svg>
