<svg width="27" height="27" viewBox="0 0 27 27" fill="none" xmlns="http://www.w3.org/2000/svg">
<path d="M9.85463 0.832176L9.85462 0.832142L9.85871 0.830883C9.90888 0.815447 9.98187 0.809095 10.0373 0.804815C10.1053 0.799557 10.1937 0.794817 10.2981 0.790506C10.5074 0.781864 10.789 0.77463 11.1178 0.768776C11.7758 0.757059 12.6281 0.750776 13.4802 0.750078C14.3324 0.74938 15.1857 0.754265 15.8458 0.764933C16.1756 0.770262 16.4585 0.777056 16.6694 0.785387C16.7746 0.789543 16.8638 0.794155 16.9326 0.799314C16.9901 0.803623 17.0618 0.809868 17.111 0.824198C17.3249 0.886417 17.5536 1.05989 17.7292 1.23553C17.9049 1.41116 18.0783 1.63986 18.1406 1.85374L18.1406 1.85387C18.1625 1.92941 18.1735 2.0515 18.1818 2.19922C18.1907 2.35794 18.1975 2.57719 18.2028 2.86766C18.2133 3.44909 18.2175 4.3258 18.2175 5.59523V8.78253H21.4048C22.6742 8.78253 23.5509 8.78671 24.1323 8.79722C24.4228 8.80247 24.6421 8.80933 24.8008 8.81823C24.9485 8.82651 25.0706 8.83747 25.1461 8.8594L25.1463 8.85944C25.3601 8.92166 25.5888 9.09513 25.7645 9.27077C25.9401 9.4464 26.1136 9.6751 26.1758 9.88898L26.176 9.8896C26.1902 9.9389 26.1969 10.0096 26.2016 10.0691C26.2072 10.1386 26.2121 10.2281 26.2167 10.3332C26.2257 10.5438 26.2331 10.8251 26.2391 11.1524C26.251 11.8075 26.2569 12.6523 26.2569 13.4966C26.2569 14.3408 26.251 15.1856 26.2391 15.8407C26.2331 16.168 26.2257 16.4493 26.2167 16.6599C26.2121 16.7651 26.2072 16.8545 26.2016 16.924C26.1969 16.9835 26.1902 17.0542 26.176 17.1035L26.1758 17.1041C26.1136 17.318 25.9401 17.5467 25.7645 17.7223C25.5888 17.898 25.3601 18.0714 25.1463 18.1337L25.1461 18.1337C25.0706 18.1556 24.9485 18.1666 24.8008 18.1749C24.6421 18.1838 24.4228 18.1906 24.1323 18.1959C23.5509 18.2064 22.6742 18.2106 21.4048 18.2106H18.2175V21.3979C18.2175 22.6673 18.2133 23.544 18.2028 24.1254C18.1975 24.4159 18.1907 24.6352 18.1818 24.7939C18.1735 24.9416 18.1625 25.0637 18.1406 25.1392L18.1406 25.1394C18.0783 25.3532 17.9049 25.5819 17.7292 25.7576C17.5536 25.9332 17.3249 26.1067 17.111 26.1689L17.1104 26.1691C17.0611 26.1833 16.9904 26.19 16.9309 26.1947C16.8614 26.2003 16.7719 26.2052 16.6668 26.2098C16.4562 26.2188 16.1749 26.2262 15.8476 26.2322C15.1925 26.2441 14.3477 26.25 13.5034 26.25C12.6592 26.25 11.8144 26.2441 11.1593 26.2322C10.832 26.2262 10.5507 26.2188 10.3401 26.2098C10.2349 26.2052 10.1455 26.2003 10.076 26.1947C10.0165 26.19 9.94579 26.1833 9.89649 26.1691L9.89588 26.1689C9.682 26.1067 9.4533 25.9332 9.27766 25.7576C9.10203 25.5819 8.92856 25.3532 8.86634 25.1394L8.8663 25.1392C8.84437 25.0637 8.83341 24.9416 8.82513 24.7939C8.81623 24.6352 8.80936 24.4159 8.80411 24.1254C8.79361 23.544 8.78943 22.6673 8.78943 21.3979V18.2106H5.60213C4.3327 18.2106 3.45599 18.2064 2.87456 18.1959C2.58409 18.1906 2.36484 18.1838 2.20612 18.1749C2.0584 18.1666 1.93631 18.1556 1.86077 18.1337L1.86064 18.1337C1.64676 18.0714 1.41806 17.898 1.24242 17.7223C1.06678 17.5467 0.893315 17.318 0.831096 17.1041L0.830919 17.1035C0.816713 17.0542 0.80999 16.9835 0.805259 16.924C0.799721 16.8545 0.79475 16.7651 0.790248 16.6599C0.781226 16.4493 0.773771 16.168 0.767828 15.8407C0.755934 15.1856 0.75 14.3408 0.75 13.4966C0.75 12.6523 0.755934 11.8075 0.767828 11.1524C0.773771 10.8251 0.781226 10.5438 0.790248 10.3332C0.79475 10.2281 0.799721 10.1386 0.805259 10.0691C0.80999 10.0096 0.816713 9.9389 0.830918 9.8896L0.831097 9.88898C0.893315 9.6751 1.06678 9.4464 1.24242 9.27077C1.41806 9.09513 1.64676 8.92166 1.86064 8.85944L1.86077 8.8594C1.93631 8.83747 2.0584 8.82651 2.20612 8.81823C2.36484 8.80933 2.58409 8.80247 2.87456 8.79722C3.45599 8.78671 4.3327 8.78253 5.60213 8.78253H8.78943V5.59523C8.78943 4.3258 8.79361 3.44909 8.80411 2.86766C8.80936 2.57719 8.81623 2.35795 8.82513 2.19922C8.83341 2.0515 8.84437 1.92941 8.8663 1.85387L8.86654 1.85303C8.92624 1.65008 9.10045 1.42274 9.26878 1.24933C9.43681 1.07623 9.65758 0.896519 9.85463 0.832176ZM25.9358 9.95881C25.8465 9.65191 25.3833 9.18877 25.0764 9.09949L18.2175 17.9606H21.4048C23.9437 17.9606 24.9034 17.9438 25.0764 17.8936C25.3833 17.8043 25.8465 17.3412 25.9358 17.0343C26.0306 16.7051 26.0306 10.288 25.9358 9.95881ZM16.762 2.20994L16.7619 2.21009L16.7548 2.20272L16.6947 2.14009H13.5034H10.3122L10.2521 2.20272L10.2522 2.20287L10.2449 2.20994L10.1822 2.27007V5.90771V9.65191V9.75846L10.1054 9.83226L9.96953 9.96266L9.83916 10.0985L9.76536 10.1753H9.65881H5.91461H2.27697L2.21684 10.238L2.21699 10.2381L2.20962 10.2452L2.14699 10.3053V13.4966V16.6878L2.20962 16.7479L2.20977 16.7478L2.21684 16.7551L2.27697 16.8178H5.83091H5.85961C7.7955 16.8178 8.77449 16.8178 9.28518 16.8525C9.53467 16.8695 9.71269 16.8962 9.84084 16.9579C9.99165 17.0305 10.0524 17.1418 10.0895 17.2098C10.0915 17.2135 10.0935 17.2171 10.0954 17.2205L10.0997 17.2283L10.1034 17.2364C10.1223 17.2773 10.1282 17.3204 10.1299 17.3324C10.13 17.333 10.13 17.3335 10.1301 17.334C10.1331 17.3553 10.1355 17.3798 10.1376 17.4056C10.1418 17.4579 10.1456 17.528 10.1491 17.6142C10.156 17.7873 10.162 18.0349 10.1669 18.3543C10.1767 18.9937 10.1822 19.927 10.1822 21.1412V24.723L10.2449 24.7832L10.245 24.783L10.2521 24.7904L10.3122 24.853H13.5034H16.6947L16.7548 24.7904L16.7547 24.7902L16.762 24.7832L16.8247 24.723V21.0854V17.3412V17.2346L16.9015 17.1608L17.0373 17.0305L17.1677 16.8946L17.2415 16.8178H17.3481H21.0923H24.7299L24.7901 16.7551L24.7899 16.755L24.7973 16.7479L24.8599 16.6878V13.4966V10.3053L24.7973 10.2452L24.7971 10.2453L24.7901 10.238L24.7299 10.1753H21.0923H17.3481H17.2415L17.1677 10.0985L17.0374 9.96264L16.9015 9.83226L16.8247 9.75846V9.65191V5.90771V2.27007L16.762 2.20994Z" fill="#969696" stroke="#969696" stroke-width="0.5"/>
</svg>
