<svg width="12" height="12" viewBox="0 0 12 12" fill="none" xmlns="http://www.w3.org/2000/svg">
<g clip-path="url(#clip0_22_263)">
<path d="M10.582 0.440641C9.91405 0.682048 0.766392 4.30783 0.684361 4.36408C0.562486 4.44845 0.43358 4.63595 0.39608 4.7883C0.360923 4.93127 0.379673 5.12111 0.445298 5.26642C0.503892 5.40236 0.674986 5.58283 0.794517 5.63439C0.841392 5.65548 1.83749 5.9297 3.0117 6.24611C4.18358 6.56252 5.15155 6.8297 5.16092 6.83908C5.1703 6.84845 5.43045 7.80002 5.74217 8.95314C6.05155 10.1063 6.32342 11.0977 6.34452 11.1563C6.39608 11.2992 6.58358 11.4914 6.73124 11.5547C6.7992 11.5828 6.91405 11.6133 6.9867 11.618C7.22811 11.6414 7.49999 11.5125 7.63592 11.3133C7.70624 11.2149 11.5523 1.47892 11.6039 1.27736C11.6625 1.04767 11.5805 0.775798 11.4023 0.595328C11.1844 0.37736 10.9031 0.323454 10.582 0.440641Z" fill="black"/>
</g>
<defs>
<clipPath id="clip0_22_263">
<rect width="12" height="12" fill="white"/>
</clipPath>
</defs>
</svg>
