<svg width="36" height="36" viewBox="0 0 36 36" fill="none" xmlns="http://www.w3.org/2000/svg">
<path d="M16.38 6.55202C15.552 7.20002 14.976 7.34402 13.644 7.27202C12.132 7.16402 11.772 7.27202 10.548 8.35202C9.79203 9.03602 8.28003 9.86402 7.05603 10.224C3.85203 11.196 3.20403 12.024 1.44003 17.64C-0.32397 23.328 -0.25197 24.228 2.19603 26.46C5.58003 29.52 10.152 30.744 18 30.744C25.848 30.744 30.42 29.52 33.804 26.46C36.252 24.228 36.36 23.292 34.56 17.64C32.832 12.06 32.148 11.196 28.944 10.224C27.756 9.86402 26.208 9.03602 25.452 8.38802C24.48 7.48802 23.76 7.20002 22.788 7.20002C22.068 7.20002 21.204 6.94802 20.844 6.62402C20.484 6.30002 19.584 5.97602 18.828 5.86802C17.748 5.72402 17.244 5.86802 16.38 6.55202ZM20.268 7.92002C20.772 8.35202 21.708 8.64002 22.464 8.64002C23.724 8.64002 25.2 9.61202 25.2 10.44C25.2 10.62 25.848 11.196 26.676 11.7C27.54 12.276 28.332 13.14 28.656 13.896C28.944 14.58 29.34 15.12 29.52 15.12C30.168 15.12 30.348 14.04 29.916 13.068C29.34 11.772 29.628 11.7 30.816 12.744L31.86 13.68L30.852 14.58C26.892 18.108 9.10803 18.108 5.14803 14.58L4.14003 13.68L5.18403 12.744C6.40803 11.664 6.58803 11.736 6.04803 13.248C5.72403 14.112 5.72403 14.508 6.01203 14.796C6.55203 15.336 7.20003 14.904 7.20003 14.04C7.20003 13.68 7.70403 12.996 8.31603 12.528C9.43203 11.7 10.548 10.62 11.7 9.28802C12.24 8.67602 12.6 8.56802 14.076 8.74802C15.624 8.92802 15.948 8.85602 16.74 8.10002C17.784 7.02002 19.044 6.94802 20.268 7.92002ZM8.85603 17.712C11.268 18.36 12.672 18.468 18 18.468C24.732 18.468 28.44 17.856 31.212 16.2L32.4 15.516L33.516 19.152C34.668 22.752 34.668 22.752 34.02 23.976C30.096 31.284 5.90403 31.248 1.94403 23.94L1.29603 22.68L2.44803 19.116L3.63603 15.516L4.82403 16.236C5.47203 16.596 7.27203 17.28 8.85603 17.712Z" fill="#969696"/>
<path d="M13.104 11.952C12.456 12.996 16.776 15.048 17.712 14.112C18.216 13.608 17.748 12.96 16.812 12.96C16.38 12.96 15.48 12.636 14.832 12.24C13.464 11.412 13.428 11.376 13.104 11.952Z" fill="#969696"/>
<path d="M21.816 13.356C21.096 14.112 20.916 14.58 21.168 14.832C22.032 15.696 24.084 13.968 23.616 12.744C23.328 12.024 23.004 12.132 21.816 13.356Z" fill="#969696"/>
<path d="M14.112 22.032C13.5 22.788 13.752 25.956 14.508 26.424C15.3 26.928 16.344 26.316 16.488 25.236C16.596 24.588 16.848 24.48 18.36 24.48C19.872 24.48 20.124 24.588 20.232 25.236C20.376 26.316 21.42 26.928 22.212 26.424C22.968 25.956 23.22 22.788 22.608 22.032C22.032 21.384 20.952 21.492 20.448 22.32C20.088 22.86 19.584 23.04 18.36 23.04C17.136 23.04 16.632 22.86 16.272 22.32C15.768 21.492 14.688 21.384 14.112 22.032Z" fill="#969696"/>
</svg>
