<svg width="24" height="28" viewBox="0 0 24 28" fill="none" xmlns="http://www.w3.org/2000/svg">
<path d="M10.4891 0.0718317C8.99414 0.301828 7.65797 1.01372 6.61204 2.12537C5.46206 3.34654 4.86516 4.75937 4.78302 6.45148C4.66802 8.81716 5.82896 11.0788 7.83321 12.3876C8.8189 13.0338 9.76627 13.3623 10.9163 13.4554C13.0465 13.6197 14.8645 12.9516 16.3321 11.4566C17.7668 9.99452 18.4076 8.19288 18.2323 6.12292C18.079 4.34866 17.2959 2.82083 15.9378 1.64895C14.8645 0.728964 13.8788 0.268971 12.5153 0.0718317C11.8581 -0.0212612 11.0915 -0.0267372 10.4891 0.0718317ZM12.8219 1.79133C13.6817 2.01037 14.3279 2.38822 15.0507 3.08368C15.9926 3.97629 16.469 4.96199 16.595 6.23792C16.7428 7.74932 16.2774 9.1293 15.2533 10.2245C14.6181 10.9036 13.6817 11.4785 12.8876 11.6812C11.7103 11.9769 10.3084 11.8509 9.3008 11.3526C7.9263 10.6736 6.90775 9.4031 6.53537 7.90265C6.39299 7.32766 6.40942 6.02983 6.56823 5.43841C6.98989 3.85034 8.36986 2.37727 9.90317 1.87894C10.7355 1.61062 11.9786 1.57228 12.8219 1.79133Z" fill="#969696"/>
<path d="M5.51631 13.576C4.67847 13.6636 3.81325 13.9812 3.12874 14.4412C1.42019 15.6021 0.314022 18.1978 0.0566456 21.6477C-0.0857329 23.5863 0.0292651 24.5446 0.52759 25.5467C0.801395 26.1053 1.32162 26.7186 1.85281 27.1129C2.25804 27.4086 2.93707 27.7152 3.53397 27.8686L4.02682 28H11.6934H19.3599L19.8527 27.874C21.5832 27.4195 22.7934 26.2531 23.226 24.6048C23.4505 23.756 23.4232 21.7299 23.1603 20.1308C22.5853 16.5714 21.1287 14.4357 18.8232 13.7676C18.2975 13.6143 17.3556 13.4993 17.0764 13.5541C16.808 13.6033 16.4357 13.8005 15.5923 14.3426C14.6833 14.9286 14.5409 15.0052 13.8619 15.2516C13.0624 15.5419 12.4655 15.6569 11.7262 15.6569C10.9596 15.6569 10.3681 15.5474 9.59053 15.2736C8.85673 15.0107 8.82388 14.9943 7.6739 14.2659C7.07153 13.8826 6.62249 13.6362 6.44725 13.5869C6.14059 13.5102 6.14059 13.5102 5.51631 13.576ZM6.9401 15.739C7.96961 16.4016 8.40222 16.6152 9.30577 16.9109C11.6605 17.683 14.0645 17.3107 16.3316 15.8266C17.3556 15.1531 17.3337 15.164 17.7663 15.2188C19.7542 15.4707 20.9972 17.1409 21.5229 20.2787C21.7365 21.5711 21.8022 23.3727 21.6598 24.0572C21.4299 25.1579 20.6851 25.9355 19.5461 26.2586C19.2175 26.3517 18.7849 26.3572 11.6934 26.3572C4.58538 26.3572 4.17467 26.3517 3.83515 26.2586C3.01921 26.0286 2.3128 25.47 1.98423 24.7965C1.69947 24.216 1.62829 23.7286 1.67209 22.5513C1.71043 21.363 1.76519 20.8099 1.95685 19.8406C2.09923 19.0849 2.43327 18.0116 2.66874 17.5461C3.37516 16.1442 4.33348 15.3776 5.57655 15.2188C5.77917 15.1914 5.96535 15.1695 5.98726 15.164C6.00916 15.164 6.4363 15.4214 6.9401 15.739Z" fill="#969696"/>
</svg>
