<svg width="23" height="23" viewBox="0 0 23 23" fill="none" xmlns="http://www.w3.org/2000/svg">
<path d="M10.0498 0.346777C6.31622 0.837206 3.05724 3.18389 1.40138 6.56943C-0.122644 9.69131 -0.122644 13.3089 1.40138 16.4308C3.1047 19.9165 6.44279 22.2526 10.3346 22.6798C11.2311 22.78 12.6654 22.722 13.5725 22.5532C17.5539 21.7991 20.8498 18.9409 22.1471 15.1019C22.9328 12.7868 22.9328 10.2134 22.1471 7.89834C20.7496 3.77451 17.0635 0.805565 12.7393 0.32041C12.0959 0.251854 10.6985 0.262402 10.0498 0.346777ZM12.9238 1.93936C16.0932 2.40342 18.8248 4.41787 20.2223 7.33408C21.4826 9.96025 21.4826 13.0399 20.2223 15.6661C17.9072 20.486 12.1381 22.5216 7.334 20.2224C4.18575 18.7142 2.06583 15.587 1.8549 12.1435C1.72306 9.96025 2.26622 7.92998 3.45802 6.14756C4.19103 5.04541 5.03478 4.20166 6.14747 3.45811C8.14083 2.12393 10.535 1.58603 12.9238 1.93936Z" fill="white" fill-opacity="0.9"/>
<path d="M10.6035 5.82578C8.97404 6.17383 7.9088 7.33398 7.77697 8.91602L7.74005 9.34316L8.52579 9.32734L9.31154 9.31152L9.34845 8.9793C9.4381 8.16191 9.97599 7.53965 10.7828 7.30762C11.21 7.18106 12.0379 7.21797 12.4598 7.38145C13.293 7.70313 13.7887 8.63125 13.6147 9.56465C13.5092 10.1289 13.3246 10.4189 12.6654 11.0518C11.2205 12.4387 11.0518 12.6232 10.8514 13.0346C10.6246 13.4934 10.4981 13.9521 10.4981 14.3055V14.5586H11.3418H12.1856V14.4057C12.1856 14.1631 12.3807 13.5988 12.56 13.3299C12.6496 13.1928 13.1559 12.6496 13.6832 12.117C14.5744 11.2258 14.6588 11.1256 14.8592 10.709C14.9805 10.4611 15.1018 10.1553 15.1281 10.0234C15.4129 8.81582 15.0912 7.63984 14.2475 6.80137C13.794 6.35313 13.4512 6.14219 12.8447 5.93125C12.4809 5.80996 12.3227 5.78359 11.6846 5.77305C11.1994 5.7625 10.8303 5.77832 10.6035 5.82578Z" fill="white" fill-opacity="0.9"/>
<path d="M10.4453 16.3779V17.248H11.3154H12.1855V16.3779V15.5078H11.3154H10.4453V16.3779Z" fill="white" fill-opacity="0.9"/>
</svg>
